<?xml version="1.0" encoding="UTF-8" standalone="no"?>
<svg
   xmlns:dc="http://purl.org/dc/elements/1.1/"
   xmlns:cc="http://creativecommons.org/ns#"
   xmlns:rdf="http://www.w3.org/1999/02/22-rdf-syntax-ns#"
   xmlns:svg="http://www.w3.org/2000/svg"
   xmlns="http://www.w3.org/2000/svg"
   xmlns:sodipodi="http://sodipodi.sourceforge.net/DTD/sodipodi-0.dtd"
   xmlns:inkscape="http://www.inkscape.org/namespaces/inkscape"
   version="1.2"
   width="1007.1031"
   height="578.57007"
   viewBox="0 0 26646.271 15307.999"
   preserveAspectRatio="xMidYMid"
   xml:space="preserve"
   id="svg2981"
   sodipodi:docname="Options.svg"
   style="fill-rule:evenodd;stroke-width:28.22200012;stroke-linejoin:round"
   inkscape:version="0.92.3 (2405546, 2018-03-11)"><metadata
     id="metadata2985"><rdf:RDF><cc:Work
         rdf:about=""><dc:format>image/svg+xml</dc:format><dc:type
           rdf:resource="http://purl.org/dc/dcmitype/StillImage" /><dc:title></dc:title></cc:Work></rdf:RDF></metadata><sodipodi:namedview
     pagecolor="#ffffff"
     bordercolor="#666666"
     borderopacity="1"
     objecttolerance="10"
     gridtolerance="10"
     guidetolerance="10"
     inkscape:pageopacity="0"
     inkscape:pageshadow="2"
     inkscape:window-width="1600"
     inkscape:window-height="844"
     id="namedview2983"
     showgrid="false"
     units="px"
     fit-margin-top="0"
     fit-margin-left="0.1"
     fit-margin-right="1.8"
     fit-margin-bottom="0"
     inkscape:zoom="0.29734127"
     inkscape:cx="-83.127118"
     inkscape:cy="228.8126"
     inkscape:window-x="0"
     inkscape:window-y="28"
     inkscape:window-maximized="1"
     inkscape:current-layer="svg2981" /><g
     label="base"
     id="g2541"
     class="com.sun.star.drawing.CustomShape"
     transform="translate(-1566.3542,-1246)"
     title="base">
       <g
   id="id3">
        <rect
   style="fill:none;stroke:none"
   id="rect2518"
   height="1268"
   width="8293"
   y="1246"
   x="10589"
   class="BoundingBox" />
        <path
   style="fill:none;stroke:#808080;stroke-width:106;stroke-linejoin:round"
   inkscape:connector-curvature="0"
   id="path2520"
   d="m 10771,1370 v 0 c -10,0 -20,3 -29,8 -9,5 -16,12 -21,21 -5,9 -8,19 -8,29 v 973 1 c 0,10 3,20 8,29 5,9 12,16 21,21 9,5 19,8 29,8 h 7998 1 c 10,0 20,-3 29,-8 9,-5 16,-12 21,-21 5,-9 8,-19 8,-29 v -974 0 0 c 0,-10 -3,-20 -8,-29 -5,-9 -12,-16 -21,-21 -9,-5 -19,-8 -29,-8 z" />
        <text
   id="text2528"
   class="TextShape"><tspan
     style="font-weight:700;font-size:564px;font-family:Arial, sans-serif"
     id="tspan2526"
     font-weight="700"
     font-size="564px"
     class="TextParagraph"><tspan
       id="tspan2524"
       y="2109"
       x="12002"
       class="TextPosition"><tspan
         style="fill:#808080;stroke:none"
         id="tspan2522">Les sciences pour ...</tspan></tspan></tspan></text>

        <path
   style="fill:none;stroke:#000000;stroke-width:106;stroke-linejoin:round"
   inkscape:connector-curvature="0"
   id="path2530"
   d="m 10700,1299 v 0 c -10,0 -20,3 -29,8 -9,5 -16,12 -21,21 -5,9 -8,19 -8,29 v 973 1 c 0,10 3,20 8,29 5,9 12,16 21,21 9,5 19,8 29,8 h 7998 1 c 10,0 20,-3 29,-8 9,-5 16,-12 21,-21 5,-9 8,-19 8,-29 v -974 0 0 c 0,-10 -3,-20 -8,-29 -5,-9 -12,-16 -21,-21 -9,-5 -19,-8 -29,-8 z" />
        <text
   id="text2538"
   class="TextShape"><tspan
     style="font-weight:700;font-size:564px;font-family:Arial, sans-serif"
     id="tspan2536"
     font-weight="700"
     font-size="564px"
     class="TextParagraph"><tspan
       id="tspan2534"
       y="2038"
       x="11931"
       class="TextPosition"><tspan
         style="fill:#ffffff;stroke:none"
         id="tspan2532">Les sciences pour ...</tspan></tspan></tspan></text>

       </g>
      </g><g
     label="fragment1"
     id="g2603"
     class="Group"
     transform="translate(-1566.3542,-1246)"
     title="fragment1">
       <g
   id="g2548"
   class="com.sun.star.drawing.CustomShape">
        <g
   id="id4">
         <rect
   style="fill:none;stroke:none"
   id="rect2543"
   height="2459"
   width="4992"
   y="1986"
   x="5473"
   class="BoundingBox" />
         <path
   style="fill:#ff8000;stroke:none"
   inkscape:connector-curvature="0"
   id="path2545"
   d="M 10189,1986 6550,3329 6413,2959 5474,4148 6961,4443 6824,4072 10463,2729 Z" />
        </g>
       </g>
       <g
   id="g2571"
   class="com.sun.star.drawing.CustomShape">
        <g
   id="id5">
         <rect
   style="fill:none;stroke:none"
   id="rect2550"
   height="4481"
   width="4681"
   y="4681"
   x="1573"
   class="BoundingBox" />
         <path
   style="fill:none;stroke:#ff0000;stroke-width:106;stroke-linejoin:round"
   inkscape:connector-curvature="0"
   id="path2552"
   d="m 1860,4734 h 1 c -42,0 -82,11 -118,31 -35,21 -65,51 -86,86 -20,36 -31,76 -31,118 v 3904 0 c 0,42 11,82 31,118 21,35 51,65 86,86 36,20 76,31 118,31 h 4104 v 0 c 42,0 82,-11 118,-31 35,-21 65,-51 86,-86 20,-36 31,-76 31,-118 v -3905 1 0 c 0,-42 -11,-82 -31,-118 -21,-35 -51,-65 -86,-86 -36,-20 -76,-31 -118,-31 z" />
         <text
   id="text2568"
   class="TextShape"><tspan
     style="font-weight:700;font-size:494px;font-family:'Liberation Sans', sans-serif"
     id="tspan2566"
     font-weight="700"
     font-size="494px"
     class="TextParagraph"><tspan
       id="tspan2556"
       y="6537"
       x="2147"
       class="TextPosition"><tspan
         style="fill:#ffffff;stroke:none"
         id="tspan2554">Si les sciences </tspan></tspan><tspan
       id="tspan2560"
       y="7092"
       x="3337"
       class="TextPosition"><tspan
         style="fill:#ffffff;stroke:none"
         id="tspan2558">vous </tspan></tspan><tspan
       id="tspan2564"
       y="7647"
       x="2313"
       class="TextPosition"><tspan
         style="fill:#ffffff;stroke:none"
         id="tspan2562">intéressent ...</tspan></tspan></tspan></text>

        </g>
       </g>
       <g
   id="g2578"
   class="com.sun.star.drawing.CustomShape">
        <g
   id="id6">
         <rect
   style="fill:none;stroke:none"
   id="rect2573"
   height="2605"
   width="1255"
   y="9726"
   x="3088"
   class="BoundingBox" />
         <path
   style="fill:#8d1d75;stroke:none"
   inkscape:connector-curvature="0"
   id="path2575"
   d="m 3994,9726 v 1473 h 347 l -626,1130 -627,-1130 h 348 V 9726 Z" />
        </g>
       </g>
       <g
   id="g2601"
   class="com.sun.star.drawing.CustomShape">
        <g
   id="id7">
         <rect
   style="fill:none;stroke:none"
   id="rect2580"
   height="4053"
   width="4785"
   y="12501"
   x="1569"
   class="BoundingBox" />
         <path
   style="fill:none;stroke:#2a6099;stroke-width:106;stroke-linejoin:round"
   inkscape:connector-curvature="0"
   id="path2582"
   d="m 1833,12554 h 1 c -37,0 -74,10 -106,28 -32,19 -59,46 -78,78 -18,32 -28,69 -28,106 v 3522 0 c 0,37 10,74 28,106 19,32 46,59 78,78 32,18 69,28 106,28 l 4254,-1 v 1 c 37,0 74,-10 106,-28 32,-19 59,-46 78,-78 18,-32 28,-69 28,-106 v -3523 1 0 c 0,-37 -10,-74 -28,-106 -19,-32 -46,-59 -78,-78 -32,-18 -69,-28 -106,-28 z" />
         <text
   id="text2598"
   class="TextShape"><tspan
     style="font-weight:700;font-size:494px;font-family:'Liberation Sans', sans-serif"
     id="tspan2596"
     font-weight="700"
     font-size="494px"
     class="TextParagraph"><tspan
       id="tspan2586"
       y="14143"
       x="2888"
       class="TextPosition"><tspan
         style="fill:#ffffff;stroke:none"
         id="tspan2584">Sciences </tspan></tspan><tspan
       id="tspan2590"
       y="14698"
       x="2005"
       class="TextPosition"><tspan
         style="fill:#ffffff;stroke:none"
         id="tspan2588">générales (bio 2, </tspan></tspan><tspan
       id="tspan2594"
       y="15253"
       x="2170"
       class="TextPosition"><tspan
         style="fill:#ffffff;stroke:none"
         id="tspan2592">chim 2, phys 3)</tspan></tspan></tspan></text>

        </g>
       </g>
      </g><g
     label="fragment2"
     id="g2699"
     class="Group"
     transform="translate(-1566.3542,-1246)">
       <g
   id="g2610"
   class="com.sun.star.drawing.CustomShape">
        <g
   id="id8">
         <rect
   style="fill:none;stroke:none"
   id="rect2605"
   height="2112"
   width="2337"
   y="2543"
   x="10008"
   class="BoundingBox" />
         <path
   style="fill:#ff8000;stroke:none"
   inkscape:connector-curvature="0"
   id="path2607"
   d="m 11875,2543 -1576,1123 -234,-329 -56,1033 993,284 -234,-330 1576,-1123 z" />
        </g>
       </g>
       <g
   id="g2641"
   class="com.sun.star.drawing.CustomShape">
        <g
   id="id9">
         <rect
   style="fill:none;stroke:none"
   id="rect2612"
   height="3543"
   width="4869"
   y="4765"
   x="6665"
   class="BoundingBox" />
         <path
   style="fill:none;stroke:#ff0000;stroke-width:106;stroke-linejoin:round"
   inkscape:connector-curvature="0"
   id="path2614"
   d="m 6902,4818 v 0 c -32,0 -64,9 -92,25 -28,16 -51,39 -67,67 -16,28 -25,60 -25,92 v 3067 1 c 0,32 9,64 25,92 16,28 39,51 67,67 28,16 60,25 92,25 l 4393,-1 1,1 c 32,0 64,-9 92,-25 28,-16 51,-39 67,-67 16,-28 25,-60 25,-92 v -3068 0 0 c 0,-32 -9,-64 -25,-92 -16,-28 -39,-51 -67,-67 -28,-16 -60,-25 -92,-25 z" />
         <text
   id="text2638"
   class="TextShape"><tspan
     style="font-weight:700;font-size:494px;font-family:'Liberation Sans', sans-serif"
     id="tspan2636"
     font-weight="700"
     font-size="494px"
     class="TextParagraph"><tspan
       id="tspan2618"
       y="5597"
       x="7780"
       class="TextPosition"><tspan
         style="fill:#ffffff;stroke:none"
         id="tspan2616">Des études </tspan></tspan><tspan
       id="tspan2622"
       y="6152"
       x="7765"
       class="TextPosition"><tspan
         style="fill:#ffffff;stroke:none"
         id="tspan2620">d’ingénieur </tspan></tspan><tspan
       id="tspan2626"
       y="6707"
       x="7556"
       class="TextPosition"><tspan
         style="fill:#ffffff;stroke:none"
         id="tspan2624">industriel, de </tspan></tspan><tspan
       id="tspan2630"
       y="7262"
       x="7645"
       class="TextPosition"><tspan
         style="fill:#ffffff;stroke:none"
         id="tspan2628">physique ou </tspan></tspan><tspan
       id="tspan2634"
       y="7817"
       x="7949"
       class="TextPosition"><tspan
         style="fill:#ffffff;stroke:none"
         id="tspan2632">l’armée ...</tspan></tspan></tspan></text>

        </g>
       </g>
       <g
   id="g2664"
   class="com.sun.star.drawing.CustomShape">
        <g
   id="id10">
         <rect
   style="fill:none;stroke:none"
   id="rect2643"
   height="2557"
   width="4908"
   y="9686"
   x="6647"
   class="BoundingBox" />
         <path
   style="fill:none;stroke:#2a6099;stroke-width:106;stroke-linejoin:round"
   inkscape:connector-curvature="0"
   id="path2645"
   d="m 6831,9739 v 0 c -23,0 -45,6 -65,18 -20,11 -37,28 -48,48 -12,20 -18,42 -18,65 v 2187 1 c 0,23 6,45 18,65 11,20 28,37 48,48 20,12 42,18 65,18 h 4538 1 c 23,0 45,-6 65,-18 20,-11 37,-28 48,-48 12,-20 18,-42 18,-65 v -2188 0 0 c 0,-23 -6,-45 -18,-65 -11,-20 -28,-37 -48,-48 -20,-12 -42,-18 -65,-18 z" />
         <text
   id="text2661"
   class="TextShape"><tspan
     style="font-weight:700;font-size:494px;font-family:'Liberation Sans', sans-serif"
     id="tspan2659"
     font-weight="700"
     font-size="494px"
     class="TextParagraph"><tspan
       id="tspan2649"
       y="10580"
       x="8027"
       class="TextPosition"><tspan
         style="fill:#ffffff;stroke:none"
         id="tspan2647">Sciences </tspan></tspan><tspan
       id="tspan2653"
       y="11135"
       x="7144"
       class="TextPosition"><tspan
         style="fill:#ffffff;stroke:none"
         id="tspan2651">générales (bio 2, </tspan></tspan><tspan
       id="tspan2657"
       y="11690"
       x="7310"
       class="TextPosition"><tspan
         style="fill:#ffffff;stroke:none"
         id="tspan2655">chim 2, phys 3)</tspan></tspan></tspan></text>

        </g>
       </g>
       <g
   id="g2671"
   class="com.sun.star.drawing.CustomShape">
        <g
   id="id11">
         <rect
   style="fill:none;stroke:none"
   id="rect2666"
   height="1017"
   width="1255"
   y="8504"
   x="8561"
   class="BoundingBox" />
         <path
   style="fill:#8d1d75;stroke:none"
   inkscape:connector-curvature="0"
   id="path2668"
   d="m 9467,8504 v 575 h 348 l -627,441 -627,-441 h 349 v -575 z" />
        </g>
       </g>
       <g
   id="g2690"
   class="com.sun.star.drawing.CustomShape">
        <g
   id="id12">
         <rect
   style="fill:none;stroke:none"
   id="rect2673"
   height="2556"
   width="4908"
   y="13990"
   x="6646"
   class="BoundingBox" />
         <path
   style="fill:none;stroke:#00a933;stroke-width:106;stroke-linejoin:round"
   inkscape:connector-curvature="0"
   id="path2675"
   d="m 6830,14043 v 0 c -23,0 -45,6 -65,18 -20,11 -37,28 -48,48 -12,20 -18,42 -18,65 v 2186 1 c 0,23 6,45 18,65 11,20 28,37 48,48 20,12 42,18 65,18 h 4537 1 c 23,0 45,-6 65,-18 20,-11 37,-28 48,-48 12,-20 18,-42 18,-65 l -1,-2187 h 1 v 0 c 0,-23 -6,-45 -18,-65 -11,-20 -28,-37 -48,-48 -20,-12 -42,-18 -65,-18 z" />
         <text
   id="text2687"
   class="TextShape"><tspan
     style="font-weight:700;font-size:494px;font-family:'Liberation Sans', sans-serif"
     id="tspan2685"
     font-weight="700"
     font-size="494px"
     class="TextParagraph"><tspan
       id="tspan2679"
       y="15161"
       x="7875"
       class="TextPosition"><tspan
         style="fill:#ffffff;stroke:none"
         id="tspan2677">PES Math-</tspan></tspan><tspan
       id="tspan2683"
       y="15716"
       x="8000"
       class="TextPosition"><tspan
         style="fill:#ffffff;stroke:none"
         id="tspan2681">Physique</tspan></tspan></tspan></text>

        </g>
       </g>
       <g
   id="g2697"
   class="com.sun.star.drawing.CustomShape">
        <g
   id="id13">
         <rect
   style="fill:none;stroke:none"
   id="rect2692"
   height="1337"
   width="1306"
   y="12369"
   x="8536"
   class="BoundingBox" />
         <path
   style="fill:#be480a;stroke:none"
   inkscape:connector-curvature="0"
   id="path2694"
   d="m 9043,12369 h 289 v 507 h 508 v 320 h -508 v 508 h -289 v -508 h -507 v -320 h 507 z" />
        </g>
       </g>
      </g><g
     label="fragment4"
     id="g2787"
     class="Group"
     transform="translate(-1566.3542,-1246)">
       <g
   id="g2706"
   class="com.sun.star.drawing.CustomShape">
        <g
   id="id14">
         <rect
   style="fill:none;stroke:none"
   id="rect2701"
   height="2009"
   width="2042"
   y="2579"
   x="17477"
   class="BoundingBox" />
         <path
   style="fill:#ff8000;stroke:none"
   inkscape:connector-curvature="0"
   id="path2703"
   d="m 18002,2579 1254,1154 262,-284 -105,954 -943,184 262,-285 -1254,-1153 z" />
        </g>
       </g>
       <g
   id="g2725"
   class="com.sun.star.drawing.CustomShape">
        <g
   id="id15">
         <rect
   style="fill:none;stroke:none"
   id="rect2708"
   height="3543"
   width="5068"
   y="4765"
   x="17867"
   class="BoundingBox" />
         <path
   style="fill:none;stroke:#ff0000;stroke-width:106;stroke-linejoin:round"
   inkscape:connector-curvature="0"
   id="path2710"
   d="m 18104,4818 v 0 c -32,0 -64,9 -92,25 -28,16 -51,39 -67,67 -16,28 -25,60 -25,92 v 3067 1 c 0,32 9,64 25,92 16,28 39,51 67,67 28,16 60,25 92,25 l 4592,-1 1,1 c 32,0 64,-9 92,-25 28,-16 51,-39 67,-67 16,-28 25,-60 25,-92 v -3068 0 0 c 0,-32 -9,-64 -25,-92 -16,-28 -39,-51 -67,-67 -28,-16 -60,-25 -92,-25 z" />
         <text
   id="text2722"
   class="TextShape"><tspan
     style="font-weight:700;font-size:494px;font-family:'Liberation Sans', sans-serif"
     id="tspan2720"
     font-weight="700"
     font-size="494px"
     class="TextParagraph"><tspan
       id="tspan2714"
       y="6430"
       x="18724"
       class="TextPosition"><tspan
         style="fill:#ffffff;stroke:none"
         id="tspan2712">Des études de </tspan></tspan><tspan
       id="tspan2718"
       y="6985"
       x="19259"
       class="TextPosition"><tspan
         style="fill:#ffffff;stroke:none"
         id="tspan2716">médecine</tspan></tspan></tspan></text>

        </g>
       </g>
       <g
   id="g2748"
   class="com.sun.star.drawing.CustomShape">
        <g
   id="id16">
         <rect
   style="fill:none;stroke:none"
   id="rect2727"
   height="2557"
   width="5108"
   y="9686"
   x="17847"
   class="BoundingBox" />
         <path
   style="fill:none;stroke:#2a6099;stroke-width:106;stroke-linejoin:round"
   inkscape:connector-curvature="0"
   id="path2729"
   d="m 18031,9739 v 0 c -23,0 -45,6 -65,18 -20,11 -37,28 -48,48 -12,20 -18,42 -18,65 v 2187 1 c 0,23 6,45 18,65 11,20 28,37 48,48 20,12 42,18 65,18 h 4738 1 c 23,0 45,-6 65,-18 20,-11 37,-28 48,-48 12,-20 18,-42 18,-65 v -2188 0 0 c 0,-23 -6,-45 -18,-65 -11,-20 -28,-37 -48,-48 -20,-12 -42,-18 -65,-18 z" />
         <text
   id="text2745"
   class="TextShape"><tspan
     style="font-weight:700;font-size:494px;font-family:'Liberation Sans', sans-serif"
     id="tspan2743"
     font-weight="700"
     font-size="494px"
     class="TextParagraph"><tspan
       id="tspan2733"
       y="10580"
       x="19327"
       class="TextPosition"><tspan
         style="fill:#ffffff;stroke:none"
         id="tspan2731">Sciences </tspan></tspan><tspan
       id="tspan2737"
       y="11135"
       x="18444"
       class="TextPosition"><tspan
         style="fill:#ffffff;stroke:none"
         id="tspan2735">générales (bio 2, </tspan></tspan><tspan
       id="tspan2741"
       y="11690"
       x="18610"
       class="TextPosition"><tspan
         style="fill:#ffffff;stroke:none"
         id="tspan2739">chim 2, phys 3)</tspan></tspan></tspan></text>

        </g>
       </g>
       <g
   id="g2755"
   class="com.sun.star.drawing.CustomShape">
        <g
   id="id17">
         <rect
   style="fill:none;stroke:none"
   id="rect2750"
   height="1017"
   width="1253"
   y="8504"
   x="19562"
   class="BoundingBox" />
         <path
   style="fill:#8d1d75;stroke:none"
   inkscape:connector-curvature="0"
   id="path2752"
   d="m 20467,8504 v 575 h 347 l -626,441 -626,-441 h 348 v -575 z" />
        </g>
       </g>
       <g
   id="g2778"
   class="com.sun.star.drawing.CustomShape">
        <g
   id="id18">
         <rect
   style="fill:none;stroke:none"
   id="rect2757"
   height="2556"
   width="5107"
   y="13990"
   x="17847"
   class="BoundingBox" />
         <path
   style="fill:none;stroke:#00a933;stroke-width:106;stroke-linejoin:round"
   inkscape:connector-curvature="0"
   id="path2759"
   d="m 18031,14043 v 0 c -23,0 -45,6 -65,18 -20,11 -37,28 -48,48 -12,20 -18,42 -18,65 v 2186 1 c 0,23 6,45 18,65 11,20 28,37 48,48 20,12 42,18 65,18 h 4737 1 c 23,0 45,-6 65,-18 20,-11 37,-28 48,-48 12,-20 18,-42 18,-65 v -2187 0 0 c 0,-23 -6,-45 -18,-65 -11,-20 -28,-37 -48,-48 -20,-12 -42,-18 -65,-18 z" />
         <text
   id="text2775"
   class="TextShape"><tspan
     style="font-weight:700;font-size:494px;font-family:'Liberation Sans', sans-serif"
     id="tspan2773"
     font-weight="700"
     font-size="494px"
     class="TextParagraph"><tspan
       id="tspan2763"
       y="14884"
       x="19176"
       class="TextPosition"><tspan
         style="fill:#ffffff;stroke:none"
         id="tspan2761">PES Math-</tspan></tspan><tspan
       id="tspan2767"
       y="15439"
       x="18488"
       class="TextPosition"><tspan
         style="fill:#ffffff;stroke:none"
         id="tspan2765">Physique &amp; PES </tspan></tspan><tspan
       id="tspan2771"
       y="15994"
       x="19094"
       class="TextPosition"><tspan
         style="fill:#ffffff;stroke:none"
         id="tspan2769">Bio-Chimie</tspan></tspan></tspan></text>

        </g>
       </g>
       <g
   id="g2785"
   class="com.sun.star.drawing.CustomShape">
        <g
   id="id19">
         <rect
   style="fill:none;stroke:none"
   id="rect2780"
   height="1337"
   width="1304"
   y="12369"
   x="19537"
   class="BoundingBox" />
         <path
   style="fill:#be480a;stroke:none"
   inkscape:connector-curvature="0"
   id="path2782"
   d="m 20044,12369 h 288 v 507 h 508 v 320 h -508 v 508 h -288 v -508 h -507 v -320 h 507 z" />
        </g>
       </g>
      </g><g
     label="fragment5"
     id="g2875"
     class="Group"
     transform="translate(-1566.3542,-1246)">
       <g
   id="g2794"
   class="com.sun.star.drawing.CustomShape">
        <g
   id="id20">
         <rect
   style="fill:none;stroke:none"
   id="rect2789"
   height="2689"
   width="4294"
   y="1795"
   x="19719"
   class="BoundingBox" />
         <path
   style="fill:#ff8000;stroke:none"
   inkscape:connector-curvature="0"
   id="path2791"
   d="m 20115,1795 3071,1659 197,-342 628,1238 -1419,132 198,-343 -3071,-1659 z" />
        </g>
       </g>
       <g
   id="g2821"
   class="com.sun.star.drawing.CustomShape">
        <g
   id="id21">
         <rect
   style="fill:none;stroke:none"
   id="rect2796"
   height="3543"
   width="4681"
   y="4765"
   x="23464"
   class="BoundingBox" />
         <path
   style="fill:none;stroke:#ff0000;stroke-width:106;stroke-linejoin:round"
   inkscape:connector-curvature="0"
   id="path2798"
   d="m 23701,4818 v 0 c -32,0 -64,9 -92,25 -28,16 -51,39 -67,67 -16,28 -25,60 -25,92 v 3067 1 c 0,32 9,64 25,92 16,28 39,51 67,67 28,16 60,25 92,25 l 4205,-1 1,1 c 32,0 64,-9 92,-25 28,-16 51,-39 67,-67 16,-28 25,-60 25,-92 v -3068 0 0 c 0,-32 -9,-64 -25,-92 -16,-28 -39,-51 -67,-67 -28,-16 -60,-25 -92,-25 z" />
         <text
   id="text2818"
   class="TextShape"><tspan
     style="font-weight:700;font-size:494px;font-family:'Liberation Sans', sans-serif"
     id="tspan2816"
     font-weight="700"
     font-size="494px"
     class="TextParagraph"><tspan
       id="tspan2802"
       y="5875"
       x="24485"
       class="TextPosition"><tspan
         style="fill:#ffffff;stroke:none"
         id="tspan2800">Des études </tspan></tspan><tspan
       id="tspan2806"
       y="6430"
       x="24470"
       class="TextPosition"><tspan
         style="fill:#ffffff;stroke:none"
         id="tspan2804">d’ingénieur </tspan></tspan><tspan
       id="tspan2810"
       y="6985"
       x="24891"
       class="TextPosition"><tspan
         style="fill:#ffffff;stroke:none"
         id="tspan2808">civil, de </tspan></tspan><tspan
       id="tspan2814"
       y="7540"
       x="23990"
       class="TextPosition"><tspan
         style="fill:#ffffff;stroke:none"
         id="tspan2812">mathématiques</tspan></tspan></tspan></text>

        </g>
       </g>
       <g
   id="g2844"
   class="com.sun.star.drawing.CustomShape">
        <g
   id="id22">
         <rect
   style="fill:none;stroke:none"
   id="rect2823"
   height="2556"
   width="4718"
   y="9689"
   x="23447"
   class="BoundingBox" />
         <path
   style="fill:none;stroke:#2a6099;stroke-width:106;stroke-linejoin:round"
   inkscape:connector-curvature="0"
   id="path2825"
   d="m 23631,9742 v 0 c -23,0 -45,6 -65,18 -20,11 -37,28 -48,48 -12,20 -18,42 -18,65 v 2186 1 c 0,23 6,45 18,65 11,20 28,37 48,48 20,12 42,18 65,18 h 4348 1 c 23,0 45,-6 65,-18 20,-11 37,-28 48,-48 12,-20 18,-42 18,-65 v -2187 0 0 c 0,-23 -6,-45 -18,-65 -11,-20 -28,-37 -48,-48 -20,-12 -42,-18 -65,-18 z" />
         <text
   id="text2841"
   class="TextShape"><tspan
     style="font-weight:700;font-size:494px;font-family:'Liberation Sans', sans-serif"
     id="tspan2839"
     font-weight="700"
     font-size="494px"
     class="TextParagraph"><tspan
       id="tspan2829"
       y="10583"
       x="24732"
       class="TextPosition"><tspan
         style="fill:#ffffff;stroke:none"
         id="tspan2827">Sciences </tspan></tspan><tspan
       id="tspan2833"
       y="11138"
       x="23849"
       class="TextPosition"><tspan
         style="fill:#ffffff;stroke:none"
         id="tspan2831">générales (bio 2, </tspan></tspan><tspan
       id="tspan2837"
       y="11693"
       x="24015"
       class="TextPosition"><tspan
         style="fill:#ffffff;stroke:none"
         id="tspan2835">chim 2, phys 3)</tspan></tspan></tspan></text>

        </g>
       </g>
       <g
   id="g2851"
   class="com.sun.star.drawing.CustomShape">
        <g
   id="id23">
         <rect
   style="fill:none;stroke:none"
   id="rect2846"
   height="1017"
   width="1295"
   y="8505"
   x="25381"
   class="BoundingBox" />
         <path
   style="fill:#8d1d75;stroke:none"
   inkscape:connector-curvature="0"
   id="path2848"
   d="m 26316,8505 v 575 h 359 l -647,441 -647,-441 h 360 v -575 z" />
        </g>
       </g>
       <g
   id="g2866"
   class="com.sun.star.drawing.CustomShape">
        <g
   id="id24">
         <rect
   style="fill:none;stroke:none"
   id="rect2853"
   height="2557"
   width="4718"
   y="13990"
   x="23447"
   class="BoundingBox" />
         <path
   style="fill:none;stroke:#00a933;stroke-width:106;stroke-linejoin:round"
   inkscape:connector-curvature="0"
   id="path2855"
   d="m 23631,14043 v 0 c -23,0 -45,6 -65,18 -20,11 -37,28 -48,48 -12,20 -18,42 -18,65 v 2187 1 c 0,23 6,45 18,65 11,20 28,37 48,48 20,12 42,18 65,18 h 4348 1 c 23,0 45,-6 65,-18 20,-11 37,-28 48,-48 12,-20 18,-42 18,-65 v -2188 0 0 c 0,-23 -6,-45 -18,-65 -11,-20 -28,-37 -48,-48 -20,-12 -42,-18 -65,-18 z" />
         <text
   id="text2863"
   class="TextShape"><tspan
     style="font-weight:700;font-size:494px;font-family:'Liberation Sans', sans-serif"
     id="tspan2861"
     font-weight="700"
     font-size="494px"
     class="TextParagraph"><tspan
       id="tspan2859"
       y="15439"
       x="24664"
       class="TextPosition"><tspan
         style="fill:#ffffff;stroke:none"
         id="tspan2857">PES Math</tspan></tspan></tspan></text>

        </g>
       </g>
       <g
   id="g2873"
   class="com.sun.star.drawing.CustomShape">
        <g
   id="id25">
         <rect
   style="fill:none;stroke:none"
   id="rect2868"
   height="1336"
   width="1348"
   y="12371"
   x="25358"
   class="BoundingBox" />
         <path
   style="fill:#be480a;stroke:none"
   inkscape:connector-curvature="0"
   id="path2870"
   d="m 25877,12371 h 308 v 519 h 520 v 296 h -520 v 520 h -308 v -520 h -519 v -296 h 519 z" />
        </g>
       </g>
      </g><g
     label="fragment3"
     id="g2971"
     class="Group"
     transform="translate(-1566.3542,-1246)">
       <g
   id="g2910"
   class="com.sun.star.drawing.CustomShape">
        <g
   id="id26">
         <rect
   style="fill:none;stroke:none"
   id="rect2877"
   height="3543"
   width="5167"
   y="4765"
   x="12066"
   class="BoundingBox" />
         <path
   style="fill:none;stroke:#ff0000;stroke-width:106;stroke-linejoin:round"
   inkscape:connector-curvature="0"
   id="path2879"
   d="m 12303,4818 v 0 c -32,0 -64,9 -92,25 -28,16 -51,39 -67,67 -16,28 -25,60 -25,92 v 3067 1 c 0,32 9,64 25,92 16,28 39,51 67,67 28,16 60,25 92,25 l 4691,-1 1,1 c 32,0 64,-9 92,-25 28,-16 51,-39 67,-67 16,-28 25,-60 25,-92 l -1,-3068 h 1 v 0 c 0,-32 -9,-64 -25,-92 -16,-28 -39,-51 -67,-67 -28,-16 -60,-25 -92,-25 z" />
         <text
   id="text2907"
   class="TextShape"><tspan
     style="font-weight:700;font-size:494px;font-family:'Liberation Sans', sans-serif"
     id="tspan2905"
     font-weight="700"
     font-size="494px"
     class="TextParagraph"><tspan
       id="tspan2883"
       y="5320"
       x="13330"
       class="TextPosition"><tspan
         style="fill:#ffffff;stroke:none"
         id="tspan2881">Des études </tspan></tspan><tspan
       id="tspan2887"
       y="5875"
       x="12928"
       class="TextPosition"><tspan
         style="fill:#ffffff;stroke:none"
         id="tspan2885">scientifiques à </tspan></tspan><tspan
       id="tspan2891"
       y="6430"
       x="13370"
       class="TextPosition"><tspan
         style="fill:#ffffff;stroke:none"
         id="tspan2889">orientation </tspan></tspan><tspan
       id="tspan2895"
       y="6985"
       x="12996"
       class="TextPosition"><tspan
         style="fill:#ffffff;stroke:none"
         id="tspan2893">paramédicale, </tspan></tspan><tspan
       id="tspan2899"
       y="7540"
       x="13631"
       class="TextPosition"><tspan
         style="fill:#ffffff;stroke:none"
         id="tspan2897">biologie, </tspan></tspan><tspan
       id="tspan2903"
       y="8095"
       x="13514"
       class="TextPosition"><tspan
         style="fill:#ffffff;stroke:none"
         id="tspan2901">chimie, ...</tspan></tspan></tspan></text>

        </g>
       </g>
       <g
   id="g2933"
   class="com.sun.star.drawing.CustomShape">
        <g
   id="id27">
         <rect
   style="fill:none;stroke:none"
   id="rect2912"
   height="2557"
   width="5208"
   y="9686"
   x="12047"
   class="BoundingBox" />
         <path
   style="fill:none;stroke:#2a6099;stroke-width:106;stroke-linejoin:round"
   inkscape:connector-curvature="0"
   id="path2914"
   d="m 12231,9739 v 0 c -23,0 -45,6 -65,18 -20,11 -37,28 -48,48 -12,20 -18,42 -18,65 v 2187 1 c 0,23 6,45 18,65 11,20 28,37 48,48 20,12 42,18 65,18 h 4838 1 c 23,0 45,-6 65,-18 20,-11 37,-28 48,-48 12,-20 18,-42 18,-65 v -2188 0 0 c 0,-23 -6,-45 -18,-65 -11,-20 -28,-37 -48,-48 -20,-12 -42,-18 -65,-18 z" />
         <text
   id="text2930"
   class="TextShape"><tspan
     style="font-weight:700;font-size:494px;font-family:'Liberation Sans', sans-serif"
     id="tspan2928"
     font-weight="700"
     font-size="494px"
     class="TextParagraph"><tspan
       id="tspan2918"
       y="10580"
       x="13577"
       class="TextPosition"><tspan
         style="fill:#ffffff;stroke:none"
         id="tspan2916">Sciences </tspan></tspan><tspan
       id="tspan2922"
       y="11135"
       x="12694"
       class="TextPosition"><tspan
         style="fill:#ffffff;stroke:none"
         id="tspan2920">générales (bio 2, </tspan></tspan><tspan
       id="tspan2926"
       y="11690"
       x="12860"
       class="TextPosition"><tspan
         style="fill:#ffffff;stroke:none"
         id="tspan2924">chim 2, phys 3)</tspan></tspan></tspan></text>

        </g>
       </g>
       <g
   id="g2940"
   class="com.sun.star.drawing.CustomShape">
        <g
   id="id28">
         <rect
   style="fill:none;stroke:none"
   id="rect2935"
   height="1017"
   width="1255"
   y="8504"
   x="13893"
   class="BoundingBox" />
         <path
   style="fill:#8d1d75;stroke:none"
   inkscape:connector-curvature="0"
   id="path2937"
   d="m 14799,8504 v 575 h 348 l -627,441 -627,-441 h 349 v -575 z" />
        </g>
       </g>
       <g
   id="g2955"
   class="com.sun.star.drawing.CustomShape">
        <g
   id="id29">
         <rect
   style="fill:none;stroke:none"
   id="rect2942"
   height="2556"
   width="5208"
   y="13990"
   x="12045"
   class="BoundingBox" />
         <path
   style="fill:none;stroke:#00a933;stroke-width:106;stroke-linejoin:round"
   inkscape:connector-curvature="0"
   id="path2944"
   d="m 12230,14043 v 0 c -23,0 -45,6 -65,18 -20,11 -37,28 -48,48 -12,20 -18,42 -18,65 v 2186 1 c 0,23 6,45 18,65 11,20 28,37 48,48 20,12 42,18 65,18 h 4837 1 c 23,0 45,-6 65,-18 20,-11 37,-28 48,-48 12,-20 18,-42 18,-65 v -2187 0 0 c 0,-23 -6,-45 -18,-65 -11,-20 -28,-37 -48,-48 -20,-12 -42,-18 -65,-18 z" />
         <text
   id="text2952"
   class="TextShape"><tspan
     style="font-weight:700;font-size:494px;font-family:'Liberation Sans', sans-serif"
     id="tspan2950"
     font-weight="700"
     font-size="494px"
     class="TextParagraph"><tspan
       id="tspan2948"
       y="15439"
       x="12720"
       class="TextPosition"><tspan
         style="fill:#ffffff;stroke:none"
         id="tspan2946">PES  Bio/Chimie</tspan></tspan></tspan></text>

        </g>
       </g>
       <g
   id="g2962"
   class="com.sun.star.drawing.CustomShape">
        <g
   id="id30">
         <rect
   style="fill:none;stroke:none"
   id="rect2957"
   height="1337"
   width="1305"
   y="12369"
   x="13868"
   class="BoundingBox" />
         <path
   style="fill:#be480a;stroke:none"
   inkscape:connector-curvature="0"
   id="path2959"
   d="m 14375,12369 h 289 v 507 h 508 v 320 h -508 v 508 h -289 v -508 h -507 v -320 h 507 z" />
        </g>
       </g>
       <g
   id="g2969"
   class="com.sun.star.drawing.CustomShape">
        <g
   id="id31">
         <rect
   style="fill:none;stroke:none"
   id="rect2964"
   height="1921"
   width="2002"
   y="2772"
   x="13700"
   class="BoundingBox" />
         <path
   style="fill:#ff8000;stroke:none"
   inkscape:connector-curvature="0"
   id="path2966"
   d="m 14200,2773 v 1439 h -500 l 1000,480 1001,-480 h -501 V 2773 Z" />
        </g>
       </g>
      </g><defs
     class="ClipPathGroup"
     id="defs2355" /><defs
     id="defs2386" /><defs
     id="defs2475" /><defs
     class="TextShapeIndex"
     id="defs2479" /><defs
     class="EmbeddedBulletChars"
     id="defs2511" /></svg>